<svg xmlns="http://www.w3.org/2000/svg" width="15" height="15" viewBox="0 0 15 15">
  <metadata><?xpacket begin="﻿" id="W5M0MpCehiHzreSzNTczkc9d"?>
<x:xmpmeta xmlns:x="adobe:ns:meta/" x:xmptk="Adobe XMP Core 5.6-c140 79.160451, 2017/05/06-01:08:21        ">
   <rdf:RDF xmlns:rdf="http://www.w3.org/1999/02/22-rdf-syntax-ns#">
      <rdf:Description rdf:about=""/>
   </rdf:RDF>
</x:xmpmeta>
                                                                                                    
                                                                                                    
                                                                                                    
                                                                                                    
                                                                                                    
                                                                                                    
                                                                                                    
                                                                                                    
                                                                                                    
                                                                                                    
                                                                                                    
                                                                                                    
                                                                                                    
                                                                                                    
                                                                                                    
                                                                                                    
                                                                                                    
                                                                                                    
                                                                                                    
                                                                                                    
                           
<?xpacket end="w"?></metadata>
<defs>
    <style>
      .cls-1 {
        fill: #7347c1;
        fill-rule: evenodd;
      }
    </style>
  </defs>
  <path id="Forma_1_copy_3" data-name="Forma 1 copy 3" class="cls-1" d="M1119.17,1997.67a7.5,7.5,0,1,0,7.5-7.5A7.5,7.5,0,0,0,1119.17,1997.67Zm0.57,0a6.951,6.951,0,0,1,.6-2.82l3.31,9.04A6.912,6.912,0,0,1,1119.74,1997.67Zm6.93,6.92a7.033,7.033,0,0,1-1.96-.28l2.08-6.04,2.13,5.83c0.01,0.03.03,0.06,0.04,0.09A6.682,6.682,0,0,1,1126.67,2004.59Zm5.59-7.05a6.472,6.472,0,0,0,.53-2.48,5.426,5.426,0,0,0-.05-0.72,6.927,6.927,0,0,1-2.59,9.31Zm-1.49-2.13a3.664,3.664,0,0,1,.57,1.91,6.464,6.464,0,0,1-.53,2.23l-0.69,2.31-2.5-7.44c0.42-.02.79-0.06,0.79-0.06a0.291,0.291,0,0,0-.04-0.58s-1.12.09-1.85,0.09c-0.68,0-1.82-.09-1.82-0.09a0.291,0.291,0,0,0-.04.58s0.35,0.04.72,0.06l1.08,2.96-1.51,4.54-2.53-7.5c0.42-.02.8-0.06,0.8-0.06a0.291,0.291,0,0,0-.05-0.58s-1.12.09-1.84,0.09c-0.13,0-.28,0-0.45-0.01a6.919,6.919,0,0,1,10.46-1.3h-0.09a1.193,1.193,0,0,0-1.16,1.22A3.234,3.234,0,0,0,1130.77,1995.41Z" transform="translate(-1119.16 -1990.16)"/>
</svg>
