<svg xmlns="http://www.w3.org/2000/svg" width="19.88" height="19.812" viewBox="0 0 19.88 19.812">
  <defs>
    <style>
      .cls-1 {
        fill: #0674ec;
        fill-rule: evenodd;
      }
    </style>
  </defs>
  <path id="Grid" class="cls-1" d="M1464,511.94a0.42,0.42,0,0,0-.42.418v1.573a0.42,0.42,0,0,0,.84,0v-1.573A0.42,0.42,0,0,0,1464,511.94Zm0-6.29a0.42,0.42,0,0,0-.42.418v1.573a0.42,0.42,0,0,0,.84,0v-1.573A0.42,0.42,0,0,0,1464,505.65Zm0,9.435a0.42,0.42,0,0,0-.42.418v1.572a0.42,0.42,0,0,0,.84,0V515.5A0.42,0.42,0,0,0,1464,515.085Zm0-12.58a0.42,0.42,0,0,0-.42.418V504.5a0.42,0.42,0,0,0,.84,0v-1.573A0.42,0.42,0,0,0,1464,502.505Zm-5.46,7.076h-1.56a0.419,0.419,0,1,0,0,.837h1.56A0.419,0.419,0,0,0,1458.54,509.581Zm3.12,0h-1.56a0.419,0.419,0,1,0,0,.837h1.56A0.419,0.419,0,0,0,1461.66,509.581Zm3.12,0h-0.36v-0.368a0.42,0.42,0,0,0-.84,0v0.368h-0.36a0.419,0.419,0,1,0,0,.837h0.36v0.368a0.42,0.42,0,0,0,.84,0v-0.368h0.36A0.419,0.419,0,1,0,1464.78,509.581Zm6.24,0h-1.56a0.419,0.419,0,0,0,0,.837h1.56A0.419,0.419,0,1,0,1471.02,509.581Zm-3.12,0h-1.56a0.419,0.419,0,0,0,0,.837h1.56A0.419,0.419,0,1,0,1467.9,509.581Zm5.63-9.486h-19.06a0.413,0.413,0,0,0-.41.419v18.971a0.412,0.412,0,0,0,.41.418h19.06a0.412,0.412,0,0,0,.41-0.418V500.514A0.413,0.413,0,0,0,1473.53,500.1Zm-0.42,9.486h-0.53a0.419,0.419,0,0,0,0,.837h0.53v8.648h-8.69v-0.418a0.42,0.42,0,0,0-.84,0v0.418h-8.69v-8.648h0.53a0.418,0.418,0,0,0,.41-0.418,0.413,0.413,0,0,0-.41-0.419h-0.53v-8.648h8.69v0.418a0.42,0.42,0,0,0,.84,0v-0.418h8.69v8.648Z" transform="translate(-1454.06 -500.094)"/>
</svg>
