<svg xmlns="http://www.w3.org/2000/svg" width="16" height="12" viewBox="0 0 16 12">
  <defs>
    <style>
      .cls-1 {
        fill: #555;
        fill-rule: evenodd;
      }
    </style>
  </defs>
  <path id="Reply" class="cls-1" d="M1104.33,354.338V352a0.993,0.993,0,0,0-1.67-.733l-0.43.4c-1.42,1.31-3.79,3.5-5,4.72a0.937,0.937,0,0,0,0,1.23c1.21,1.216,3.58,3.409,5,4.719l0.43,0.4a0.992,0.992,0,0,0,1.67-.732v-2.331c4.8,0.067,8,1.581,8,3a0.335,0.335,0,0,0,.67,0C1113,358.175,1109.14,354.5,1104.33,354.338ZM1104,359a0.333,0.333,0,0,0-.33.333V362a0.335,0.335,0,0,1-.34.333,0.339,0.339,0,0,1-.22-0.09l-0.43-.4c-1.41-1.307-3.77-3.494-4.98-4.7a0.363,0.363,0,0,1,0-.289c1.21-1.207,3.57-3.394,4.98-4.7l0.43-.4a0.332,0.332,0,0,1,.56.244v2.666a0.334,0.334,0,0,0,.33.334,8.221,8.221,0,0,1,8.16,6.09C1110.73,359.844,1107.65,359,1104,359Z" transform="translate(-1097 -351)"/>
</svg>
