<svg xmlns="http://www.w3.org/2000/svg" width="20" height="21" viewBox="0 0 20 21">
  <defs>
    <style>
      .cls-1 {
        fill-rule: evenodd;
      }
    </style>
  </defs>
  <path id="Forma_1" data-name="Forma 1" class="cls-1" d="M538.792,1030.92a4.141,4.141,0,0,0-.5.61l-6.283-3.73a3.455,3.455,0,0,0,0-2.63l6.285-3.71a3.535,3.535,0,1,0-.571-1.9,3.5,3.5,0,0,0,.243,1.27l-6.293,3.71a3.662,3.662,0,0,0-3.041-1.62,3.561,3.561,0,1,0,0,7.12,3.65,3.65,0,0,0,3.04-1.61l6.292,3.74a3.5,3.5,0,0,0,.824,3.79,3.7,3.7,0,0,0,5.142,0,3.512,3.512,0,0,0,0-5.04A3.711,3.711,0,0,0,538.792,1030.92Zm2.572-14.21a2.851,2.851,0,1,1-2.909,2.85A2.884,2.884,0,0,1,541.364,1016.71Zm-12.727,12.62a2.846,2.846,0,1,1,2.909-2.85A2.884,2.884,0,0,1,528.637,1029.33Zm14.783,6.13a2.956,2.956,0,0,1-4.113,0,2.809,2.809,0,0,1,0-4.03,2.964,2.964,0,0,1,4.114,0A2.808,2.808,0,0,1,543.42,1035.46Z" transform="translate(-525 -1016)"/>
</svg>
